<svg version="1" xmlns="http://www.w3.org/2000/svg" width="346.667" height="346.667" viewBox="0 0 260.000000 260.000000"><path d="M0 130v130h260V0H0v130zm146.5-95c.3.5 1.8 1 3.3 1 5.8 0 21.1 6.9 30.4 13.7 7.3 5.3 18.4 16.5 19.3 19.3.4 1.1 1 2 1.4 2 .7 0 8.3 14.7 10.1 19.5.5 1.1 1.5 4.9 2.5 8.5 2.7 11 1.4 39.1-2.4 48.5-2.2 5.4-9.6 19.5-10.2 19.5-.4 0-1.1.9-1.4 2.1-.9 2.7-16.2 17.9-18.1 17.9-.8 0-1.4.4-1.4.9s-.7 1.7-1.6 2.6c-1.5 1.5-1.5 1.7 0 3.4.9 1 1.6 2.3 1.6 2.9 0 .7.9 1.2 1.9 1.2 1.1 0 3.2 1.7 4.9 4 2.6 3.5 2.8 4.5 2.2 8.5-.9 5.9-3.9 9-12.6 13.1-17.9 8.4-45.3 11.6-66.6 7.9-17-3-32.4-9.5-36.5-15.5-2.5-3.5-3.1-9.8-1.2-11.7.6-.6 1.7-2.2 2.3-3.5.6-1.2 2.2-2.4 3.4-2.6 1.2-.2 2.2-.7 2.2-1.1 0-.4.9-1.7 2-2.9l2.1-2.2-2.5-2.5c-1.4-1.4-2.9-2.5-3.4-2.5-1 0-16.2-15.4-16.2-16.4 0-.4-.9-1.6-2-2.8-2.5-2.7-11-20.1-11-22.5 0-1.1-.4-2.3-.8-2.8-4-4.6-3.9-43.1.1-47.1.4-.4.7-1.6.7-2.6 0-2.4 7.6-18.3 10.9-22.8 4.2-5.8 14.3-16 19.6-20 6.4-4.7 20.5-11.6 27-13.1 2.8-.6 5.9-1.5 7-2 3-1.1 32.3-1.1 33 .1z"/></svg>